<svg id="version_3_final_" data-name="version 3 (final)" xmlns="http://www.w3.org/2000/svg" xmlns:xlink="http://www.w3.org/1999/xlink" viewBox="0 0 2048 2048"><defs><style>.cls-1{fill:url(#linear-gradient);}</style><linearGradient id="linear-gradient" x1="327.4" y1="1024" x2="1720.6" y2="1024" gradientUnits="userSpaceOnUse"><stop offset="0" stop-color="#04703c"/><stop offset="0.79" stop-color="#8ec440"/></linearGradient></defs><path id="leaf_Solo" data-name="leaf Solo" class="cls-1" d="M1148,555.64s206.59-85.74,260.13-187.88c51.13-97.55,7.77-260.48,7.77-260.48S1603.26,273.17,1491.18,405C1415.7,493.71,1215,551.7,1148,555.64ZM1559.5,321c10.73,132.06-56.27,169.5-127.82,204.26-163.23,79.28-583.32,120.21-763.77,183.27-53.1,18.56-98.65,39-137.45,61.43V971.74L627.55,1005l62.8,93.87c67-26.37,124.8-20.05,186.21-27.05L847,884.66l93.92-109.11a54.28,54.28,0,1,1,27.83,20.94l-84.94,98.69,28.93,170.76c89.33-2.63,137,.71,212.84-7.88l57.77-217.68,237.49-104.19A66.79,66.79,0,1,1,1439.44,766l-227.65,99.87L1159,1051.49c74.81-12.14,141-56.68,165.46-106.48,3.76-7.63-11.08,135.66-235.83,172q-12.63,2-25.1,4l189.35,145.89,215.68-95.3v-77.77a54.25,54.25,0,1,1,34.76,0V1195.2l-256,111.24-230.94-177.93c-48.2,7.84-94.23,16.07-137.57,27.35l-45.64,143.51L874.59,1391l115.27-41.24,75.92,71.83a66.84,66.84,0,1,1-28.6,20.79l-55.7-52.7-125.36,44.85-60.11-133,42.62-134c-89.27,28.9-175.34,41.47-259.64,164C428.12,1550.79,626.6,1996.43,610.52,1935s36.17-151.51,129.08-192.9c104.86-46.71,741-181.16,902.67-420.6C1858.58,1001.14,1558.13,304.16,1559.5,321ZM663.29,1113.91,603.83,1032,500.52,996.57V791.73C384.24,871,325.45,975.29,327.45,1098.32c.61,38,9,70.94,11.82,96.43,80.8,28,125.11,70.67,156.07,113.45,18.54-49.23,54.29-105.06,74.5-127.11C602.35,1145.62,632.64,1132,663.29,1113.91Zm427.25,402a31.89,31.89,0,1,0-31.89-31.89A31.93,31.93,0,0,0,1090.54,1515.89ZM1517.85,717a31.89,31.89,0,1,0-31.89,31.9A31.93,31.93,0,0,0,1517.85,717Z"/></svg>